<svg width="20" height="20" viewBox="0 0 20 19" fill="none" xmlns="http://www.w3.org/2000/svg">
  <path d="M10 19L8.55 17.7C6.86667 16.1833 5.475 14.875 4.375 13.775C3.275 12.675 2.4 11.6875 1.75 10.8125C1.1 9.93749 0.645833 9.13333 0.3875 8.39999C0.129167 7.66666 0 6.91666 0 6.14999C0 4.58333 0.525 3.27499 1.575 2.22499C2.625 1.17499 3.93333 0.649994 5.5 0.649994C6.36667 0.649994 7.19167 0.833327 7.975 1.19999C8.75833 1.56666 9.43333 2.08333 10 2.74999C10.5667 2.08333 11.2417 1.56666 12.025 1.19999C12.8083 0.833327 13.6333 0.649994 14.5 0.649994C16.0667 0.649994 17.375 1.17499 18.425 2.22499C19.475 3.27499 20 4.58333 20 6.14999C20 6.91666 19.8708 7.66666 19.6125 8.39999C19.3542 9.13333 18.9 9.93749 18.25 10.8125C17.6 11.6875 16.725 12.675 15.625 13.775C14.525 14.875 13.1333 16.1833 11.45 17.7L10 19ZM10 16.3C11.6 14.8667 12.9167 13.6375 13.95 12.6125C14.9833 11.5875 15.8 10.6958 16.4 9.93749C17 9.17916 17.4167 8.50416 17.65 7.91249C17.8833 7.32083 18 6.73333 18 6.14999C18 5.14999 17.6667 4.31666 17 3.64999C16.3333 2.98333 15.5 2.64999 14.5 2.64999C13.7167 2.64999 12.9917 2.87083 12.325 3.31249C11.6583 3.75416 11.2 4.31666 10.95 4.99999H9.05C8.8 4.31666 8.34167 3.75416 7.675 3.31249C7.00833 2.87083 6.28333 2.64999 5.5 2.64999C4.5 2.64999 3.66667 2.98333 3 3.64999C2.33333 4.31666 2 5.14999 2 6.14999C2 6.73333 2.11667 7.32083 2.35 7.91249C2.58333 8.50416 3 9.17916 3.6 9.93749C4.2 10.6958 5.01667 11.5875 6.05 12.6125C7.08333 13.6375 8.4 14.8667 10 16.3Z" fill="#FF0000"/>
</svg>
